<?xml version="1.0" encoding="UTF-8"?>
<svg id="Layer_1" data-name="Layer 1" xmlns="http://www.w3.org/2000/svg" viewBox="0 0 1201.3 404.49">
  <path d="M231.78,309.04h-46.82c6.04-3.61,10.05-7.93,11.11-14.29,.32-1.95,.77-3.91,.77-5.86,.05-58.35,.07-116.69,.02-175.04,0-10.28-4.55-15.85-14.37-18.44,13.21-2.85,26.57-5.74,39.18-8.46v109.46c.61-.67,1.52-1.49,2.2-2.46,12.92-18.5,31.5-27.03,53.23-29.31,7.02-.74,14.38-.44,21.34,.76,18.64,3.22,30.08,15.03,33.12,33.69,1.04,6.36,1.33,12.89,1.38,19.34,.16,21.94,.07,43.88,.06,65.83,0,9.98,1.51,19.24,12.85,24.75h-48.64c12.05-6.15,12.62-16.59,12.57-27.43-.11-21.78,.2-43.56-.16-65.33-.12-7.23-1.06-14.62-2.86-21.62-3.3-12.79-12.28-20.22-25.34-21-22.85-1.36-41.28,7.55-54.16,26.32-3.65,5.32-6.09,12.52-6.29,18.94-.73,23.25-.33,46.53-.23,69.81,.04,8.54,3.15,15.54,11.06,20.33Z"/>
  <path d="M1088.44,195.07c5.04-6,8.73-11.34,13.34-15.72,21.44-20.38,62.89-20.37,82.53-.12,8.59,8.86,13.11,19.81,15.14,31.82,3.42,20.19,2.59,40.1-6.55,58.75-12.35,25.23-33.39,37.72-61.17,39.39-14.89,.89-28.67-2.41-40.92-11.21-.35-.25-.85-.29-1.89-.63,0,3.08,0,5.84,0,8.6,0,15.29,.01,30.58,0,45.87,0,9.09,2.78,16.63,12.87,21.34h-49.53c10.81-5.17,13.02-13.58,13.01-23.3-.06-53.18-.11-106.37,.04-159.55,.03-9.59-1.8-17.79-10.97-21.82,11.98-1.76,24.2-3.55,36.3-5.32-.66,9.53-1.4,20.2-2.21,31.91Zm.66,50.74c-.09,0-.18,0-.27,0,0,10.13-.08,20.27,.07,30.39,.03,2.03,.44,4.43,1.58,6.01,13.13,18.1,24.57,21.37,47.36,18.16,16.84-2.37,26.44-14.4,32.18-29.41,8.04-21.02,8.55-42.82,3.72-64.49-3.28-14.69-11.24-26.55-26.72-31.35-26.46-8.2-56.22,12.15-57.83,39.82-.6,10.26-.1,20.58-.1,30.88Z"/>
  <path d="M.93,248.85c1.45,2.31,2.87,4.64,4.35,6.94,12.82,19.91,28.87,36.17,51.95,43.78,23.41,7.72,46.85,6.56,69.57-2.58,21.08-8.47,31.46-29.48,26.13-50.61-2.47-9.8-8.8-16.59-17.04-21.83-13.49-8.59-28.72-12.48-44.05-16.19-16.72-4.05-33.51-7.96-49.95-12.97-11.37-3.47-21.49-9.85-29.34-19.1C-9.79,149.97-1.03,114.64,31.91,101c10.23-4.24,21.6-6.92,32.65-7.77,25.12-1.91,50.29-.79,73.8,9.6,9.45,4.17,18,10.41,26.91,15.8,2.74,1.66,3.8,4.1,3.7,7.51-.27,9.12-.09,18.26-.95,27.87-.81-1.25-1.63-2.48-2.42-3.74-14.43-23.08-33.06-41.2-59.95-48.86-22.06-6.28-44.21-6.39-65.79,2.23-19.28,7.7-24.28,27.76-20.63,43.23,1.81,7.67,7.31,12.92,13.79,17.03,12.56,7.96,26.7,11.66,41.05,14.54,19.14,3.83,38.34,7.37,56.17,15.77,15.71,7.4,29.73,17,36.42,33.71,12.62,31.56,3.38,60.17-33.96,74.15-13.14,4.92-26.89,6.83-40.91,7.14-19.19,.43-38.17-.67-56.41-7.26-12.14-4.38-23.09-10.92-32.95-19.23-1.04-.87-2.28-2.28-2.3-3.46-.18-10.05-.1-20.1-.1-30.15,.3-.09,.61-.18,.91-.27Z"/>
  <path d="M794.36,309.05h-47.26c6.92-3.52,10.69-8.31,11.78-14.76,.63-3.74,.8-7.59,.79-11.39-.02-24.6,.04-49.21-.39-73.81-.1-5.68-1.42-11.53-3.24-16.95-3.97-11.83-13.02-17.85-25.17-18.53-21.23-1.18-38.53,6.96-51.74,23.55-5.87,7.36-8.72,15.82-8.66,25.34,.13,21.45,0,42.89,.06,64.34,.02,10.49,3.2,16.25,12.29,21.94h-47.64c11.67-6.14,12.37-16.68,12.32-27.72-.12-28.43,.01-56.86-.1-85.29-.02-3.94-.5-7.96-1.36-11.81-1.44-6.46-4.43-12.11-10.54-15.46,12.39-1.76,24.56-3.48,37.23-5.28-.74,10.56-1.54,21.9-2.45,34.82,1.81-1.92,2.72-2.67,3.37-3.61,12.88-18.78,31.56-27.45,53.47-29.8,7.02-.75,14.41-.56,21.34,.74,20.51,3.86,33.02,17.69,33.8,38.61,1,26.72,.72,53.49,1.02,80.23,.03,2.82-.13,5.7,.33,8.46,1.14,6.89,4.32,12.51,10.77,16.36Z"/>
  <path d="M1042.64,304.71c-11.88,1.52-23.76,3.04-36.23,4.64v-31.96l-1.07-.49c-.76,.84-1.62,1.61-2.26,2.52-11.57,16.38-27.81,25.59-47.22,28.45-9.69,1.43-20.03,1.47-29.65-.25-18.43-3.29-31-18.33-31.77-37.7-.98-24.72-.74-49.49-1.12-74.23-.05-3.46-.39-6.94-.94-10.35-1.17-7.18-4.34-13.18-10.84-16.81,12.44-1.79,24.91-3.58,37.41-5.38-.53,7.84-1.58,16.85-1.66,25.88-.22,25.93-.61,51.89,.17,77.8,.51,16.73,7.66,27.99,20.74,31.8,24.85,7.23,62.76-10.35,67.65-41.15,.23-1.47,.26-2.98,.26-4.47,.02-19.45,.07-38.91-.05-58.36-.02-3.62-.49-7.3-1.28-10.83-1.45-6.45-4.47-12.05-10.32-15.32,12.51-1.78,25-3.56,37.58-5.35-.56,6.66-1.69,14.24-1.77,21.83-.31,32.42-.29,64.83-.44,97.25-.04,9.82,2.69,17.95,12.79,22.47Z"/>
  <path d="M378.85,232.33c-.31,16.02,.66,30.97,7.75,44.84,9.53,18.63,30.06,26.99,51.84,20.74,15.71-4.51,28.93-13.15,39.31-25.91,1.32-1.62,2.82-4.34,4.9-1.58,1.13,1.5,1.61,5.18,.61,6.3-4.3,4.81-8.93,9.44-14.03,13.38-16.49,12.76-34.97,19.75-56.2,19.18-27.31-.72-51.04-18.99-57.04-45.49-9.88-43.67,14.91-88.21,61.07-97.9,33.85-7.1,61.39,11.56,66.63,45.51,.35,2.28,.8,4.58,.84,6.88,.18,10.8-3,14.03-13.71,14.04-28.63,.02-57.25,0-85.88,0-1.8,0-3.6,0-6.1,0Zm.89-4.95h5.28c10.65,0,21.31,0,31.96,0,11.32,0,22.64,.06,33.96-.05,5.53-.05,7.59-1.73,7.5-6.4-.22-10.52-1.62-20.85-6.45-30.39-9.56-18.85-31.24-23.83-47.93-10.84-15.26,11.87-21.46,28.49-24.31,47.68Z"/>
  <path d="M518.75,232.33c-.63,15.47,.67,29.87,6.97,43.4,9.33,20.02,30.61,28.72,53.37,21.86,15.55-4.68,28.47-13.4,38.81-25.92,.71-.86,1.53-1.64,2.26-2.42,5.08,3.12,5.62,4.74,2.18,8.47-19.98,21.69-44.28,33.67-74.3,31.3-28.29-2.23-50.24-24.2-53.48-52.94-3.29-29.16,4.95-54.28,27.64-73.59,15.88-13.51,34.72-19.54,55.53-17.76,23.78,2.04,42.68,21.79,45.76,46.88,.34,2.79,.79,5.6,.82,8.4,.07,8.31-3.81,12.26-12.17,12.28-28.97,.05-57.95,.02-86.93,.02-1.97,0-3.94,0-6.48,0Zm.61-5c24.72,0,48.66,.02,72.6-.02,4.32,0,6.8-2.58,6.14-6.63-1.56-9.57-2.35-19.6-5.91-28.45-8.15-20.22-30.05-25.87-47.72-13.05-16.06,11.65-21.71,28.94-25.11,48.14Z"/>
  <path d="M1159.67,100.77c-1.32-7.37-2.23-13.58-3.56-19.69-3.6-16.46-12.19-28.15-30.09-30.7-.22-.03-.37-.48-.82-1.09,28.41-4.54,31.07-26.97,34.1-49.28,2.22,9.46,4.22,18.6,6.54,27.66,2.39,9.37,8.6,15.1,17.89,17.54,5.29,1.39,10.62,2.65,16.56,4.13-1.3,.6-2.15,1.15-3.09,1.4-3.99,1.07-8.01,2.04-12.02,3.05-12.39,3.13-18.88,11.49-21.11,23.66-1.36,7.4-2.79,14.79-4.4,23.33Z"/>
  <path d="M1052.22,103.11c17.1-3.12,20.77-15.87,22.85-30.69,2.3,15.97,6.37,30.33,27.43,30.44-20.63,1.34-25.83,14.57-27.16,31.42-2.62-14.58-5.41-28.27-23.12-31.16Z"/>
  <path d="M1145.04,372.64c19.04-3.6,21.22-17.46,23.66-31.58,2.32,15.5,4.59,31.01,26.1,30.93-7.38,3.62-16.56,3.16-20.07,11.01-3.05,6.81-4.37,14.39-6.41,21.49-2-13.88-4.33-27.95-23.28-31.85Z"/>
</svg>